<svg xmlns="http://www.w3.org/2000/svg" width="22.5" height="28" viewBox="0 0 22.5 28"><defs><style>.a{fill:#fff;fill-rule:evenodd;}</style></defs><g transform="translate(0 0)"><path class="a" d="M335.589,697.187a5.93,5.93,0,0,1,.687-2.81,6.568,6.568,0,0,1,2.3-2.507,6.385,6.385,0,0,0-5.064-2.795c-2.135-.213-4.179,1.292-5.262,1.292s-2.792-1.246-4.576-1.231a6.86,6.86,0,0,0-5.72,3.524,7.892,7.892,0,0,0-.823,2.113c-1.038,4.056.594,9.054,2.593,12,1.144,1.687,2.547,3.617,4.347,3.54,1.754-.06,2.41-1.14,4.53-1.14s2.7,1.14,4.561,1.094c1.891-.015,3.081-1.732,4.24-3.417a16.578,16.578,0,0,0,1.906-3.981,6.235,6.235,0,0,1-3.722-5.682Zm-3.463-10.42a6.242,6.242,0,0,0,1.449-4.451,6.031,6.031,0,0,0-4.088,2.112,5.956,5.956,0,0,0-1.449,4.345,5.156,5.156,0,0,0,4.088-1.99Z" transform="translate(-316.81 -682.315)"/></g></svg>