<svg xmlns="http://www.w3.org/2000/svg" width="49.68" height="30.002" viewBox="0 0 49.68 30.002"><defs><style>.a{fill:#df3e43;}</style></defs><path class="a" d="M364.216,506.943v5.289a.208.208,0,0,0,.113.185,22.8,22.8,0,0,1,8.431,7.591.208.208,0,0,1,0,.221c-.682,1.089-6.541,9.883-17.934,9.883s-17.253-8.794-17.934-9.883a.207.207,0,0,1,0-.22,22.164,22.164,0,0,1,14.583-9.619.208.208,0,0,1,.24.206V524.9a.208.208,0,0,0,.208.208h5.834a.208.208,0,0,0,.208-.208V505.458a.208.208,0,0,0-.188-.208c-.945-.091-1.924-.14-2.938-.14-17.029,0-24.2,13.654-24.818,14.909a.206.206,0,0,0,0,.184c.623,1.255,7.79,14.909,24.818,14.909s24.2-13.655,24.818-14.909a.206.206,0,0,0,0-.184,28.617,28.617,0,0,0-15.165-13.272A.208.208,0,0,0,364.216,506.943Z" transform="translate(-330 -505.11)"/></svg>