<svg xmlns="http://www.w3.org/2000/svg" width="197" height="30.002" viewBox="0 0 197 30.002"><defs><style>.a{fill:#df3e43;}.b{fill:#fff;}</style></defs><g transform="translate(-330 -505.11)"><path class="a" d="M364.216,506.943v5.289a.208.208,0,0,0,.113.185,22.8,22.8,0,0,1,8.431,7.591.208.208,0,0,1,0,.221c-.682,1.089-6.541,9.883-17.934,9.883s-17.253-8.794-17.934-9.883a.207.207,0,0,1,0-.22,22.164,22.164,0,0,1,14.583-9.619.208.208,0,0,1,.24.206V524.9a.208.208,0,0,0,.208.208h5.834a.208.208,0,0,0,.208-.208V505.458a.208.208,0,0,0-.188-.208c-.945-.091-1.924-.14-2.938-.14-17.029,0-24.2,13.654-24.818,14.909a.206.206,0,0,0,0,.184c.623,1.255,7.79,14.909,24.818,14.909s24.2-13.655,24.818-14.909a.206.206,0,0,0,0-.184,28.617,28.617,0,0,0-15.165-13.272A.208.208,0,0,0,364.216,506.943Z" transform="translate(0 0)"/><g transform="translate(385.463 509.953)"><path class="b" d="M656.555,553.171V541.022h-2.977v-3.341h2.977v-4.495h4.039v4.495h3.523v3.341h-3.523v12.149Z" transform="translate(-653.578 -533.186)"/><path class="b" d="M730.875,558.079h3.8l.122,2.673h.243a3.908,3.908,0,0,1,1.762-2.278,6.753,6.753,0,0,1,3.189-.638v3.979a7.261,7.261,0,0,0-3.1.531,2.987,2.987,0,0,0-1.534,1.747,10.365,10.365,0,0,0-.44,3.4v6.075h-4.04Z" transform="translate(-717.541 -553.584)"/><path class="b" d="M810.057,572.821h-.243a3.5,3.5,0,0,1-1.731,1.64,7.252,7.252,0,0,1-2.946.517,5.869,5.869,0,0,1-3.1-.668,3.265,3.265,0,0,1-1.428-1.944,12.938,12.938,0,0,1-.365-3.432v-9.689h4.04v8.2a14.62,14.62,0,0,0,.167,2.688,1.286,1.286,0,0,0,.7,1,5.161,5.161,0,0,0,1.837.228,3.609,3.609,0,0,0,1.9-.395,1.9,1.9,0,0,0,.82-1.23,11.57,11.57,0,0,0,.2-2.475v-8.019h4.04v15.49h-3.766Z" transform="translate(-774.946 -554.749)"/><path class="b" d="M903.321,573.691q-1.686-.122-2.931-.3v-3.159q1.093.122,2.567.2t2.567.076a10.3,10.3,0,0,0,1.989-.136,1.227,1.227,0,0,0,.8-.425,1.794,1.794,0,0,0,.182-.926,2.361,2.361,0,0,0-.106-.85.659.659,0,0,0-.425-.349,6.261,6.261,0,0,0-1.108-.2l-3.584-.455a4.107,4.107,0,0,1-2.126-.729,2.833,2.833,0,0,1-.987-1.5,9.238,9.238,0,0,1-.258-2.415,4.943,4.943,0,0,1,.775-3.022,3.607,3.607,0,0,1,2.1-1.336,14.985,14.985,0,0,1,3.417-.319q1.336,0,2.84.137a19.571,19.571,0,0,1,2.445.349v3.1a45.766,45.766,0,0,0-4.708-.273,16.8,16.8,0,0,0-1.883.076,1.137,1.137,0,0,0-1.154,1.321,2.581,2.581,0,0,0,.091.82.594.594,0,0,0,.38.349,5.115,5.115,0,0,0,.987.2l3.888.455a5.291,5.291,0,0,1,1.868.532,2.373,2.373,0,0,1,1.033,1.306,8.112,8.112,0,0,1,.349,2.718,5.717,5.717,0,0,1-.7,3.143,3.343,3.343,0,0,1-1.944,1.4,12.693,12.693,0,0,1-3.311.349Q905.007,573.812,903.321,573.691Z" transform="translate(-857.412 -553.584)"/><path class="b" d="M985.635,553.171V541.022h-2.977v-3.341h2.977v-4.495h4.039v4.495H993.2v3.341h-3.523v12.149Z" transform="translate(-925.891 -533.186)"/><path class="b" d="M1069.613,565.368a14.645,14.645,0,0,0-.167-2.7,1.286,1.286,0,0,0-.683-.987,5.033,5.033,0,0,0-1.822-.228,3.684,3.684,0,0,0-1.929.395,1.906,1.906,0,0,0-.82,1.245,11.58,11.58,0,0,0-.2,2.46v8.018h-4.04v-15.49h3.8l.122,1.914h.243a3.5,3.5,0,0,1,1.731-1.64,7.251,7.251,0,0,1,2.946-.516,5.874,5.874,0,0,1,3.1.668,3.208,3.208,0,0,1,1.412,1.944,13.5,13.5,0,0,1,.349,3.432v9.689h-4.039Z" transform="translate(-989.854 -553.584)"/><path class="b" d="M1174.719,567.039h-9.659a7.548,7.548,0,0,0,.243,2.308,1.461,1.461,0,0,0,1.093.9,13.355,13.355,0,0,0,3.007.228q1.792,0,4.708-.243v3.1a20.774,20.774,0,0,1-2.552.349q-1.579.137-3.1.137a12.071,12.071,0,0,1-4.951-.759,3.641,3.641,0,0,1-2.035-2.369,19.026,19.026,0,0,1-.456-4.829,18.151,18.151,0,0,1,.47-4.753,3.938,3.938,0,0,1,1.974-2.445,10.126,10.126,0,0,1,4.662-.82,9.428,9.428,0,0,1,4.495.8,3.51,3.51,0,0,1,1.746,2.369,24.325,24.325,0,0,1,.35,4.844Zm-8.626-5.725a1.382,1.382,0,0,0-.8.957,9.948,9.948,0,0,0-.228,2.278h5.831a7.95,7.95,0,0,0-.243-2.308,1.438,1.438,0,0,0-.82-.957,5.092,5.092,0,0,0-1.761-.228A5.465,5.465,0,0,0,1166.093,561.314Z" transform="translate(-1073.487 -553.584)"/><path class="b" d="M1266.66,574.734l-2.581-8.869h-.243l-2.551,8.869h-4.92l-4.313-15.49h4.07l2.734,11.025h.243l3.068-11.025h3.705l3.068,11.025h.273l2.7-11.025h3.979l-4.344,15.49Z" transform="translate(-1148.814 -554.749)"/><path class="b" d="M1405.481,573.691q-1.686-.122-2.931-.3v-3.159q1.093.122,2.567.2t2.567.076a10.3,10.3,0,0,0,1.989-.136,1.226,1.226,0,0,0,.8-.425,1.792,1.792,0,0,0,.182-.926,2.36,2.36,0,0,0-.106-.85.659.659,0,0,0-.425-.349,6.26,6.26,0,0,0-1.109-.2l-3.584-.455a4.106,4.106,0,0,1-2.126-.729,2.833,2.833,0,0,1-.987-1.5,9.24,9.24,0,0,1-.258-2.415,4.943,4.943,0,0,1,.775-3.022,3.606,3.606,0,0,1,2.1-1.336,14.989,14.989,0,0,1,3.417-.319q1.336,0,2.84.137a19.582,19.582,0,0,1,2.445.349v3.1a45.766,45.766,0,0,0-4.708-.273,16.8,16.8,0,0,0-1.883.076,1.137,1.137,0,0,0-1.154,1.321,2.583,2.583,0,0,0,.091.82.594.594,0,0,0,.38.349,5.113,5.113,0,0,0,.987.2l3.888.455a5.292,5.292,0,0,1,1.868.532,2.374,2.374,0,0,1,1.033,1.306,8.111,8.111,0,0,1,.349,2.718,5.717,5.717,0,0,1-.7,3.143,3.343,3.343,0,0,1-1.944,1.4,12.692,12.692,0,0,1-3.311.349Q1407.167,573.812,1405.481,573.691Z" transform="translate(-1272.95 -553.584)"/></g></g></svg>