<svg xmlns="http://www.w3.org/2000/svg" width="35" height="35" viewBox="0 0 35 35"><defs><style>.a{fill:#3d5b9b;}.b{fill:#fff;fill-rule:evenodd;}</style></defs><path class="a" d="M631.42,237.947a17.5,17.5,0,1,1,17.5-17.5A17.52,17.52,0,0,1,631.42,237.947Z" transform="translate(-613.92 -202.947)"/><g transform="translate(12.566 6.92)"><path class="b" d="M635.75,224.545v10.23a.267.267,0,0,0,.266.266h3.8a.267.267,0,0,0,.266-.266v-10.4h2.755a.266.266,0,0,0,.265-.244l.265-3.133a.267.267,0,0,0-.266-.289h-3.019V218.49a.943.943,0,0,1,.943-.944h2.123a.267.267,0,0,0,.266-.266v-3.132a.267.267,0,0,0-.266-.266h-3.587a3.811,3.811,0,0,0-3.811,3.811v3.02h-1.9a.267.267,0,0,0-.266.266v3.133a.266.266,0,0,0,.266.266h1.9Z" transform="translate(-633.584 -213.881)"/></g></svg>