<svg xmlns="http://www.w3.org/2000/svg" width="263" height="39.999" viewBox="0 0 263 39.999"><defs><style>.a{fill:#de3f42;}.b{fill:#1d1e18;}</style></defs><path class="a" d="M375.616,507.554v7.052a.278.278,0,0,0,.151.246,30.391,30.391,0,0,1,11.24,10.12.277.277,0,0,1,0,.294c-.909,1.452-8.721,13.176-23.91,13.176s-23-11.724-23.91-13.176a.276.276,0,0,1,0-.294c.815-1.3,7.182-10.863,19.442-12.824a.278.278,0,0,1,.32.275V531.5a.278.278,0,0,0,.278.278h7.778a.278.278,0,0,0,.278-.278V505.574a.278.278,0,0,0-.25-.277c-1.26-.122-2.564-.187-3.916-.187-22.7,0-32.258,18.2-33.088,19.877a.275.275,0,0,0,0,.246c.83,1.673,10.385,19.877,33.088,19.877s32.258-18.2,33.088-19.877a.275.275,0,0,0,0-.246,38.152,38.152,0,0,0-20.217-17.694A.278.278,0,0,0,375.616,507.554Z" transform="translate(-330 -505.11)"/><g transform="translate(74.303 6.456)"><path class="b" d="M657.547,559.83v-16.2h-3.969v-4.454h3.969v-5.993h5.385v5.993h4.7v4.454h-4.7v16.2Z" transform="translate(-653.578 -533.186)"/><path class="b" d="M730.875,558.16h5.062l.162,3.563h.324a5.211,5.211,0,0,1,2.349-3.037,9,9,0,0,1,4.252-.85v5.3a9.681,9.681,0,0,0-4.13.709,3.983,3.983,0,0,0-2.045,2.329,13.814,13.814,0,0,0-.587,4.535v8.1h-5.386Z" transform="translate(-713.098 -552.167)"/><path class="b" d="M813.326,577.344H813a4.662,4.662,0,0,1-2.308,2.187,9.668,9.668,0,0,1-3.928.689,7.825,7.825,0,0,1-4.13-.891,4.353,4.353,0,0,1-1.9-2.591,17.252,17.252,0,0,1-.486-4.576V559.244h5.386v10.933a19.493,19.493,0,0,0,.223,3.584,1.714,1.714,0,0,0,.931,1.336,6.882,6.882,0,0,0,2.45.3,4.811,4.811,0,0,0,2.531-.526,2.533,2.533,0,0,0,1.093-1.64,15.433,15.433,0,0,0,.263-3.3V559.244h5.386V579.9h-5.021Z" transform="translate(-766.516 -553.251)"/><path class="b" d="M904.46,578.973q-2.248-.163-3.908-.405v-4.211q1.458.163,3.422.263t3.422.1a13.736,13.736,0,0,0,2.652-.182,1.635,1.635,0,0,0,1.073-.567,2.392,2.392,0,0,0,.243-1.235,3.149,3.149,0,0,0-.142-1.134.879.879,0,0,0-.567-.466,8.355,8.355,0,0,0-1.478-.263l-4.779-.607a5.475,5.475,0,0,1-2.834-.972,3.777,3.777,0,0,1-1.316-2,12.315,12.315,0,0,1-.344-3.219,6.59,6.59,0,0,1,1.033-4.029,4.809,4.809,0,0,1,2.794-1.782,19.983,19.983,0,0,1,4.556-.425q1.781,0,3.786.182a26.105,26.105,0,0,1,3.26.465v4.13a60.991,60.991,0,0,0-6.276-.365,22.417,22.417,0,0,0-2.511.1,1.516,1.516,0,0,0-1.539,1.761,3.446,3.446,0,0,0,.121,1.093.792.792,0,0,0,.506.466,6.816,6.816,0,0,0,1.316.263l5.183.607a7.053,7.053,0,0,1,2.49.709A3.164,3.164,0,0,1,916,568.992a10.815,10.815,0,0,1,.466,3.624,7.623,7.623,0,0,1-.932,4.191,4.458,4.458,0,0,1-2.591,1.863,16.92,16.92,0,0,1-4.414.466Q906.707,579.135,904.46,578.973Z" transform="translate(-843.254 -552.167)"/><path class="b" d="M986.627,559.83v-16.2h-3.968v-4.454h3.968v-5.993h5.385v5.993h4.7v4.454h-4.7v16.2Z" transform="translate(-906.977 -533.186)"/><path class="b" d="M1072.831,567.878a19.539,19.539,0,0,0-.222-3.6,1.716,1.716,0,0,0-.911-1.316,6.712,6.712,0,0,0-2.43-.3,4.912,4.912,0,0,0-2.571.526,2.541,2.541,0,0,0-1.093,1.66,15.437,15.437,0,0,0-.263,3.28v10.69h-5.386V558.16h5.062l.162,2.551h.324a4.666,4.666,0,0,1,2.308-2.187,9.666,9.666,0,0,1,3.928-.688,7.83,7.83,0,0,1,4.13.891,4.276,4.276,0,0,1,1.883,2.592,17.991,17.991,0,0,1,.465,4.576v12.917h-5.385Z" transform="translate(-966.497 -552.167)"/><path class="b" d="M1179.283,570.105h-12.877a10.065,10.065,0,0,0,.324,3.078,1.948,1.948,0,0,0,1.458,1.195,17.8,17.8,0,0,0,4.009.3q2.389,0,6.277-.324v4.13a27.683,27.683,0,0,1-3.4.466q-2.106.182-4.13.182a16.091,16.091,0,0,1-6.6-1.012,4.854,4.854,0,0,1-2.713-3.159,25.366,25.366,0,0,1-.607-6.438,24.194,24.194,0,0,1,.627-6.337,5.248,5.248,0,0,1,2.632-3.26,13.5,13.5,0,0,1,6.216-1.093q4.13,0,5.993,1.073a4.679,4.679,0,0,1,2.328,3.158,32.431,32.431,0,0,1,.466,6.459Zm-11.5-7.633a1.842,1.842,0,0,0-1.073,1.276,13.268,13.268,0,0,0-.3,3.037h7.775a10.6,10.6,0,0,0-.324-3.077,1.917,1.917,0,0,0-1.094-1.276,6.789,6.789,0,0,0-2.349-.3A7.284,7.284,0,0,0,1167.783,562.472Z" transform="translate(-1044.32 -552.167)"/><path class="b" d="M1271.528,579.9l-3.442-11.824h-.324l-3.4,11.824h-6.56l-5.75-20.651h5.426l3.644,14.7h.324l4.09-14.7h4.94l4.09,14.7h.364l3.6-14.7h5.3l-5.791,20.651Z" transform="translate(-1114.416 -553.251)"/><path class="b" d="M1406.62,578.973q-2.248-.163-3.908-.405v-4.211q1.457.163,3.422.263t3.422.1a13.733,13.733,0,0,0,2.652-.182,1.635,1.635,0,0,0,1.073-.567,2.391,2.391,0,0,0,.243-1.235,3.144,3.144,0,0,0-.142-1.134.878.878,0,0,0-.567-.466,8.356,8.356,0,0,0-1.478-.263l-4.779-.607a5.475,5.475,0,0,1-2.834-.972,3.778,3.778,0,0,1-1.316-2,12.32,12.32,0,0,1-.344-3.219,6.591,6.591,0,0,1,1.033-4.029,4.809,4.809,0,0,1,2.794-1.782,19.988,19.988,0,0,1,4.556-.425q1.781,0,3.786.182a26.116,26.116,0,0,1,3.259.465v4.13a61,61,0,0,0-6.276-.365,22.413,22.413,0,0,0-2.511.1,1.516,1.516,0,0,0-1.538,1.761,3.449,3.449,0,0,0,.121,1.093.792.792,0,0,0,.506.466,6.814,6.814,0,0,0,1.316.263l5.183.607a7.054,7.054,0,0,1,2.49.709,3.165,3.165,0,0,1,1.377,1.741,10.812,10.812,0,0,1,.466,3.624,7.622,7.622,0,0,1-.931,4.191,4.457,4.457,0,0,1-2.591,1.863,16.919,16.919,0,0,1-4.414.466Q1408.867,579.135,1406.62,578.973Z" transform="translate(-1229.929 -552.167)"/></g></svg>