<svg id="thumbsup_icon_gray" xmlns="http://www.w3.org/2000/svg" width="28" height="38" viewBox="0 0 28 38">
  <rect id="Rectangle_553" data-name="Rectangle 553" width="28" height="38" fill="none"/>
  <g id="Group_32" data-name="Group 32" transform="translate(-861.5 -676.883)">
    <path id="Stroke_651" data-name="Stroke 651" d="M0,21.6l2.591,1.32A8.345,8.345,0,0,0,6.76,24h7.887A2.337,2.337,0,0,0,16.9,21.6L18.028,12a2.337,2.337,0,0,0-2.253-2.4H10.141V6c0-2.04-1.127-4.8-2.817-5.88A1.161,1.161,0,0,0,5.634,1.2V6L0,13.2" transform="translate(869.472 678.883)" fill="none" stroke="#6db3c5" stroke-linecap="round" stroke-linejoin="round" stroke-miterlimit="10" stroke-width="2"/>
    <path id="Stroke_652" data-name="Stroke 652" d="M0,0H5.972V16.424H0Z" transform="translate(863.5 686.459)" fill="none" stroke="#6db3c5" stroke-linecap="round" stroke-linejoin="round" stroke-miterlimit="10" stroke-width="2"/>
  </g>
</svg>
