<svg xmlns="http://www.w3.org/2000/svg" width="28" height="38" viewBox="0 0 28 38"><defs><style>.a,.b{fill:none;}.b{stroke:#bebebe;stroke-linecap:round;stroke-linejoin:round;stroke-miterlimit:10;stroke-width:2px;}</style></defs><rect class="a" width="28" height="38"/><g transform="translate(-861.5 -676.883)"><path class="b" d="M0,21.6l2.591,1.32A8.345,8.345,0,0,0,6.76,24h7.887A2.337,2.337,0,0,0,16.9,21.6L18.028,12a2.337,2.337,0,0,0-2.253-2.4H10.141V6c0-2.04-1.127-4.8-2.817-5.88A1.161,1.161,0,0,0,5.634,1.2V6L0,13.2" transform="translate(869.472 678.883)"/><path class="b" d="M0,0H5.972V16.424H0Z" transform="translate(863.5 686.459)"/></g></svg>