<svg xmlns="http://www.w3.org/2000/svg" width="34.999" height="35" viewBox="0 0 34.999 35"><defs><style>.a{fill:#e52727;}.b{fill:#fff;}</style></defs><path class="a" d="M713.325,173.718a17.5,17.5,0,1,1,17.5-17.5A17.52,17.52,0,0,1,713.325,173.718Z" transform="translate(-695.825 -138.718)"/><g transform="translate(7.242 10.289)"><path class="b" d="M728.086,159.4a4.533,4.533,0,0,0-4.533-4.533H711.8a4.533,4.533,0,0,0-4.533,4.533v5.51a4.533,4.533,0,0,0,4.533,4.533h11.758a4.533,4.533,0,0,0,4.533-4.533Zm-7.418,3.033L715.979,165c-.2.111-.387-.037-.387-.269v-5.279c0-.235.189-.382.393-.266l4.721,2.707A.307.307,0,0,1,720.668,162.429Z" transform="translate(-707.262 -154.863)"/></g></svg>