<svg xmlns="http://www.w3.org/2000/svg" width="32" height="35" viewBox="0 0 32 35"><defs><style>.a{fill:#fff;fill-rule:evenodd;}</style></defs><path class="a" d="M215.409,206.009l-19.47-10.827a2.7,2.7,0,0,0-2.214-.439L210.5,210.672Zm7.2,3.994-5.191-2.886-5.352,5.056,5.421,5.124,5.052-2.77c2.491-1.385,1.569-3.67.07-4.524Zm-28.93,19.552a2.74,2.74,0,0,0,2.262-.392l19.539-10.712-5.029-4.778Zm-1.454-33.242a2.548,2.548,0,0,0-.138.97v29.757a2.491,2.491,0,0,0,.138.946L208.9,212.173Z" transform="translate(-192.085 -194.661)"/></svg>