<svg xmlns="http://www.w3.org/2000/svg" width="32" height="32" viewBox="0 0 32 32">
  <g id="Group_263" data-name="Group 263" transform="translate(-16.5 -979.117)">
    <path id="Stroke_739" data-name="Stroke 739" d="M0,0V30" transform="translate(32.499 980.117)" fill="none" stroke="#de3f42" stroke-linecap="round" stroke-linejoin="round" stroke-miterlimit="10" stroke-width="2"/>
    <path id="Stroke_741" data-name="Stroke 741" d="M0,0H30" transform="translate(17.5 995.116)" fill="none" stroke="#de3f42" stroke-linecap="round" stroke-linejoin="round" stroke-miterlimit="10" stroke-width="2"/>
    <path id="Stroke_743" data-name="Stroke 743" d="M0,0H25.883" transform="translate(19.559 987.617)" fill="none" stroke="#de3f42" stroke-linecap="round" stroke-linejoin="round" stroke-miterlimit="10" stroke-width="2"/>
    <path id="Stroke_745" data-name="Stroke 745" d="M0,0H25.883" transform="translate(19.559 1002.618)" fill="none" stroke="#de3f42" stroke-linecap="round" stroke-linejoin="round" stroke-miterlimit="10" stroke-width="2"/>
    <path id="Stroke_910" data-name="Stroke 910" d="M0,15A15,15,0,1,1,15,30,15,15,0,0,1,0,15Z" transform="translate(17.5 980.117)" fill="none" stroke="#de3f42" stroke-linecap="round" stroke-linejoin="round" stroke-miterlimit="10" stroke-width="2"/>
    <path id="Stroke_911" data-name="Stroke 911" d="M0,15C0,6.716,3.273,0,7.308,0s7.308,6.716,7.308,15S11.344,30,7.308,30,0,23.285,0,15Z" transform="translate(25.191 980.117)" fill="none" stroke="#de3f42" stroke-linecap="round" stroke-linejoin="round" stroke-miterlimit="10" stroke-width="2"/>
  </g>
</svg>
