<svg xmlns="http://www.w3.org/2000/svg" xmlns:xlink="http://www.w3.org/1999/xlink" width="538" height="68" viewBox="0 0 538 68"><defs><style>.a{fill:#fff;}.b{fill:#757575;font-size:18px;font-family:Montserrat-SemiBold, Montserrat;font-weight:600;}.c{fill:#ffc107;}.d{fill:#ff3d00;}.e{fill:#4caf50;}.f{fill:#1976d2;}.g{filter:url(#a);}</style><filter id="a" x="0" y="0" width="538" height="68" filterUnits="userSpaceOnUse"><feOffset dy="2" input="SourceAlpha"/><feGaussianBlur stdDeviation="3" result="b"/><feFlood flood-opacity="0.239"/><feComposite operator="in" in2="b"/><feComposite in="SourceGraphic"/></filter></defs><g transform="translate(-951 -679)"><g class="g" transform="matrix(1, 0, 0, 1, 951, 679)"><rect class="a" width="520" height="50" rx="25" transform="translate(9 7)"/></g><text class="b" transform="translate(1161 717)"><tspan x="0" y="0">Google login</tspan></text><g transform="translate(986 693)"><path class="c" d="M31.728,15.258H30.6V15.2H18v5.6h7.912a8.406,8.406,0,1,1-2.339-9.073l3.96-3.96A13.986,13.986,0,1,0,32,18,14.1,14.1,0,0,0,31.728,15.258Z"/><path class="d" d="M6.306,11.484l4.6,3.373a8.383,8.383,0,0,1,13.359-3.13l3.96-3.96A13.973,13.973,0,0,0,6.306,11.484Z" transform="translate(-0.692)"/><path class="e" d="M18.658,39.216a13.934,13.934,0,0,0,9.386-3.634l-4.333-3.667A8.378,8.378,0,0,1,10.76,28.054L6.2,31.572A13.989,13.989,0,0,0,18.658,39.216Z" transform="translate(-0.659 -7.216)"/><path class="f" d="M37.728,20.058H36.6V20H24v5.6h7.912a8.428,8.428,0,0,1-2.861,3.9h0l4.333,3.667A13.543,13.543,0,0,0,38,22.8,14.1,14.1,0,0,0,37.728,20.058Z" transform="translate(-6 -4.8)"/></g></g></svg>