<svg xmlns="http://www.w3.org/2000/svg" xmlns:xlink="http://www.w3.org/1999/xlink" width="35" height="35" viewBox="0 0 35 35"><defs><style>.a{fill:url(#a);}.b{fill:#fff;stroke:rgba(0,0,0,0);stroke-miterlimit:10;}</style><linearGradient id="a" y1="1" x2="1" gradientUnits="objectBoundingBox"><stop offset="0" stop-color="#fbd67a"/><stop offset="0.21" stop-color="#f5923d"/><stop offset="0.395" stop-color="#f35834"/><stop offset="0.555" stop-color="#db0271"/><stop offset="0.71" stop-color="#ab0b9e"/><stop offset="0.855" stop-color="#6c1ccf"/><stop offset="0.995" stop-color="#383ded"/></linearGradient></defs><rect class="a" width="35" height="35" rx="17.5"/><path class="b" d="M15.985,30.371H7.228A6.642,6.642,0,0,1,.593,23.737V14.98A6.642,6.642,0,0,1,7.228,8.345h8.757A6.642,6.642,0,0,1,22.62,14.98v8.757A6.642,6.642,0,0,1,15.985,30.371ZM7.228,10.423A4.562,4.562,0,0,0,2.671,14.98v8.757a4.562,4.562,0,0,0,4.557,4.557h8.757a4.562,4.562,0,0,0,4.557-4.557V14.98a4.562,4.562,0,0,0-4.557-4.557ZM11.643,24.94a5.44,5.44,0,1,1,5.44-5.44A5.446,5.446,0,0,1,11.643,24.94Zm0-8.924A3.485,3.485,0,1,0,15.128,19.5,3.488,3.488,0,0,0,11.643,16.015ZM17.4,14.989A1.3,1.3,0,1,1,18.7,13.7,1.3,1.3,0,0,1,17.4,14.989Z" transform="translate(6 -2)"/></svg>