<svg xmlns="http://www.w3.org/2000/svg" width="35" height="35" viewBox="0 0 35 35"><defs><style>.a{fill:#62abe0;}.b,.c{fill:#fff;}.c{fill-rule:evenodd;}</style></defs><path class="a" d="M549.884,237.947a17.5,17.5,0,1,1,17.5-17.5A17.519,17.519,0,0,1,549.884,237.947Z" transform="translate(-532.384 -202.947)"/><g transform="translate(7.658 9.686)"><g transform="translate(0 0)"><path class="b" d="M564.167,219.17a8.439,8.439,0,0,1-2.078.594c.334-.056.829-.662,1.026-.907a3.831,3.831,0,0,0,.692-1.26c.018-.036.032-.081,0-.109a.117.117,0,0,0-.11.009,10.6,10.6,0,0,1-2.469.945.164.164,0,0,1-.17-.045,2,2,0,0,0-.216-.221,4.369,4.369,0,0,0-1.2-.733,4.166,4.166,0,0,0-1.834-.3,4.384,4.384,0,0,0-1.74.492,4.492,4.492,0,0,0-1.4,1.147,4.324,4.324,0,0,0-.838,1.679,4.544,4.544,0,0,0-.044,1.773c.013.1,0,.113-.085.1a13.184,13.184,0,0,1-8.483-4.318c-.1-.113-.153-.113-.234.009a4.3,4.3,0,0,0,.733,5.082c.166.157.337.315.521.459a4.309,4.309,0,0,1-1.637-.459c-.1-.063-.149-.027-.157.085a2.565,2.565,0,0,0,.026.486,4.35,4.35,0,0,0,2.681,3.467,2.52,2.52,0,0,0,.544.166,4.846,4.846,0,0,1-1.605.05c-.117-.023-.162.036-.117.149a4.516,4.516,0,0,0,3.373,2.824c.153.027.306.027.459.063-.009.014-.018.014-.027.027a5.346,5.346,0,0,1-2.3,1.221,8.255,8.255,0,0,1-3.5.448c-.188-.028-.228-.026-.279,0s-.006.077.054.125c.238.158.481.3.728.432a11.56,11.56,0,0,0,2.339.936,12.457,12.457,0,0,0,12.093-2.828c2.478-2.463,3.347-5.858,3.347-9.258,0-.133.157-.207.251-.277a8.148,8.148,0,0,0,1.638-1.712.5.5,0,0,0,.1-.328v-.018C564.244,219.115,564.251,219.132,564.167,219.17Z" transform="translate(-543.67 -217.139)"/></g><g transform="translate(6.11 16.874)"><path class="c" d="M553.118,243.228Z" transform="translate(-553.118 -243.228)"/></g><g transform="translate(5.953 16.874)"><path class="c" d="M553.032,243.228c-.027,0-.34,0,0,0Z" transform="translate(-552.875 -243.228)"/></g><g transform="translate(6.803 16.877)"><path class="c" d="M554.189,243.248c0-.034.364,0,0,0C554.189,243.23,554.234,243.248,554.189,243.248Z" transform="translate(-554.189 -243.232)"/></g><g transform="translate(13.995 0.025)"><path class="c" d="M565.393,217.177a.073.073,0,0,1-.085,0Z" transform="translate(-565.308 -217.177)"/></g></g></svg>