<svg xmlns="http://www.w3.org/2000/svg" width="520" height="50" viewBox="0 0 520 50"><defs><style>.a{fill:#55acee;}.b,.c{fill:#fff;}.b{font-size:18px;font-family:Montserrat-SemiBold, Montserrat;font-weight:600;}</style></defs><g transform="translate(-960 -826)"><rect class="a" width="520" height="50" rx="25" transform="translate(960 826)"/><text class="b" transform="translate(1162 857)"><tspan x="0" y="0">Twitter login</tspan></text><path class="c" d="M24,4.616a9.641,9.641,0,0,1-2.828.795,5.037,5.037,0,0,0,2.165-2.793A9.717,9.717,0,0,1,20.21,3.843a4.86,4.86,0,0,0-3.594-1.595,5.024,5.024,0,0,0-4.8,6.2A13.867,13.867,0,0,1,1.671,3.172,5.134,5.134,0,0,0,3.194,9.913,4.811,4.811,0,0,1,.965,9.281,5.026,5.026,0,0,0,4.914,14.3a4.817,4.817,0,0,1-2.224.086,4.945,4.945,0,0,0,4.6,3.506A9.725,9.725,0,0,1,0,19.98a13.689,13.689,0,0,0,7.548,2.268c9.142,0,14.307-7.917,13.995-15.018A10.17,10.17,0,0,0,24,4.616Z" transform="translate(992 838.752)"/></g></svg>